<svg width="221" height="13" viewBox="0 0 221 13" fill="none" xmlns="http://www.w3.org/2000/svg">
<g clip-path="url(#clip0_314_943)">
<path d="M113.647 0.429688H110.77L115.805 6.90324V12.2979H118.142V7.08306L122.818 0.429688H121.559L117.962 5.82432L113.647 0.429688Z" fill="black"/>
<path d="M91.1641 2.76736V0.429688H92.6026L92.2568 0.775522C92.1279 0.904445 92.0083 1.04236 91.8989 1.18822C91.6504 1.51953 91.4569 1.88873 91.326 2.28162L91.1641 2.76736Z" fill="black"/>
<path d="M106.629 0.429688H105.37L105.514 0.573693C105.776 0.835618 105.994 1.13806 106.159 1.46937C106.232 1.61523 106.295 1.76608 106.346 1.92079L106.629 2.76736V0.429688Z" fill="black"/>
<path d="M97.6376 0.429688H100.155V12.2979H97.6376V0.429688Z" fill="black"/>
<path d="M73.0078 12.2979V0.429688H74.0867V12.2979H73.0078Z" fill="black"/>
<path d="M78.0428 0.429688H74.6262L84.1567 12.2979H87.0338V0.429688H85.9549V10.3198L78.0428 0.429688Z" fill="black"/>
<path d="M65.6643 12.0808L65.2736 12.2979H67.4315C67.9091 11.4621 68.2789 10.5692 68.5322 9.64045L68.6902 9.06109L67.7911 10.3198C67.1969 11.033 66.4758 11.63 65.6643 12.0808Z" fill="black"/>
<path d="M66.7122 0.429688H65.4535L65.9929 1.14897L66.3526 1.68843L66.7122 2.40772V0.429688Z" fill="black"/>
<path d="M56.822 0.429688H54.4844V12.2979H56.822V5.28485H60.2386C60.3583 5.28485 60.4778 5.29474 60.5958 5.31442L60.6591 5.32495C61.1989 5.41492 61.6865 5.701 62.0283 6.12833C62.1533 6.28458 62.2566 6.457 62.3355 6.64092L62.7561 7.62253L63.1158 8.70145V1.32879L63.0354 1.65032C62.8514 2.38635 62.5108 3.07403 62.0369 3.66647C61.6906 4.12815 61.1798 4.43869 60.6105 4.53356L60.5958 4.53601C60.4778 4.55568 60.3583 4.56557 60.2386 4.56557H56.822V0.429688Z" fill="black"/>
<path d="M38.1231 0.429688H35.4258L40.2809 12.2979H43.5177L48.5527 0.429688H47.1141L42.4388 11.3988L38.1231 0.429688Z" fill="black"/>
<path d="M29.5198 12.0808L29.1291 12.2979H31.287C31.7646 11.4621 32.1344 10.5692 32.3877 9.64045L32.5457 9.06109L31.6466 10.3198C31.0523 11.033 30.3313 11.63 29.5198 12.0808Z" fill="black"/>
<path d="M30.5677 0.429688H29.3089L29.8484 1.14897L30.208 1.68843L30.5677 2.40772V0.429688Z" fill="black"/>
<path d="M20.6775 0.429688H18.3398V12.2979H20.6775V5.28485H24.0941C24.2138 5.28485 24.3333 5.29474 24.4513 5.31442L24.5145 5.32495C25.0543 5.41492 25.5419 5.701 25.8838 6.12833C26.0088 6.28458 26.1121 6.457 26.1909 6.64092L26.6116 7.62253L26.9713 8.70145V1.32879L26.8909 1.65032C26.7069 2.38635 26.3663 3.07403 25.8923 3.66647C25.5461 4.12815 25.0352 4.43869 24.466 4.53356L24.4513 4.53601C24.3333 4.55568 24.2138 4.56557 24.0941 4.56557H20.6775V0.429688Z" fill="black"/>
<path d="M0.163589 8.64172L0 8.34181V9.11143C0 9.55606 0.0486616 9.99936 0.145116 10.4334C0.287204 11.0728 0.531444 11.6851 0.868436 12.2468L0.899105 12.2979H2.87714L2.33767 11.7584C1.50104 10.8023 0.771973 9.75709 0.163589 8.64172Z" fill="black"/>
<path d="M12.048 0.429688H10.6094L10.6588 0.462593C10.9832 0.678843 11.2684 0.948676 11.5023 1.26056C11.6261 1.42559 11.7348 1.60143 11.827 1.78595L12.048 2.2279V0.429688Z" fill="black"/>
<path d="M2.69732 0.429688H0.539463V1.39972C0.539463 2.17075 0.789538 2.92097 1.25215 3.53779C1.49455 3.86098 1.79013 4.1406 2.12627 4.36469L3.23678 5.10503L5.03499 6.00414L7.01302 6.90324L8.00593 7.34454C8.42055 7.52881 8.80506 7.77447 9.14652 8.07325L9.26642 8.17817C9.7926 8.63857 10.1865 9.23093 10.4076 9.89422C10.5413 10.2952 10.6094 10.7152 10.6094 11.1379V12.2979H12.9471V11.085C12.9471 10.6954 12.9149 10.3065 12.8509 9.92229L12.7795 9.49379C12.6531 8.73541 12.3586 8.01491 11.9177 7.38505C11.5289 6.82954 11.0343 6.35621 10.4622 5.99216L9.35069 5.28485L6.65338 4.02611L3.55749 2.39669C3.34632 2.28555 3.1625 2.12886 3.01933 1.93796C2.81031 1.65927 2.69732 1.3203 2.69732 0.971929V0.429688Z" fill="black"/>
<path d="M206.973 12.2979V0.429688H208.052V12.2979H206.973Z" fill="black"/>
<path d="M212.008 0.429688H208.591L218.122 12.2979H220.999V0.429688H219.92V10.3198L212.008 0.429688Z" fill="black"/>
<path d="M199.629 12.0808L199.238 12.2979H201.396C201.874 11.4621 202.244 10.5692 202.497 9.64045L202.655 9.06109L201.756 10.3198C201.162 11.033 200.441 11.63 199.629 12.0808Z" fill="black"/>
<path d="M200.677 0.429688H199.418L199.958 1.14897L200.317 1.68843L200.677 2.40772V0.429688Z" fill="black"/>
<path d="M190.787 0.429688H188.449V12.2979H190.787V5.28485H194.203C194.323 5.28485 194.443 5.29474 194.561 5.31442L194.624 5.32495C195.164 5.41492 195.651 5.701 195.993 6.12833C196.118 6.28458 196.221 6.457 196.3 6.64092L196.721 7.62253L197.081 8.70145V1.32879L197 1.65032C196.816 2.38635 196.476 3.07403 196.002 3.66647C195.655 4.12815 195.145 4.43869 194.575 4.53356L194.561 4.53601C194.443 4.55568 194.323 4.56557 194.203 4.56557H190.787V0.429688Z" fill="black"/>
<path d="M172.092 0.429688H169.395L174.25 12.2979H177.486L182.521 0.429688H181.083L176.408 11.3988L172.092 0.429688Z" fill="black"/>
<path d="M163.489 12.0808L163.098 12.2979H165.256C165.733 11.4621 166.103 10.5692 166.356 9.64045L166.514 9.06109L165.615 10.3198C165.021 11.033 164.3 11.63 163.489 12.0808Z" fill="black"/>
<path d="M164.536 0.429688H163.278L163.817 1.14897L164.177 1.68843L164.536 2.40772V0.429688Z" fill="black"/>
<path d="M154.646 0.429688H152.309V12.2979H154.646V5.28485H158.063C158.183 5.28485 158.302 5.29474 158.42 5.31442L158.483 5.32495C159.023 5.41492 159.511 5.701 159.853 6.12833C159.978 6.28458 160.081 6.457 160.16 6.64092L160.58 7.62253L160.94 8.70145V1.32879L160.86 1.65032C160.676 2.38635 160.335 3.07403 159.861 3.66647C159.515 4.12815 159.004 4.43869 158.435 4.53356L158.42 4.53601C158.302 4.55568 158.183 4.56557 158.063 4.56557H154.646V0.429688Z" fill="black"/>
<path d="M134.132 8.64172L133.969 8.34181V9.11143C133.969 9.55606 134.017 9.99936 134.114 10.4334C134.256 11.0728 134.5 11.6851 134.837 12.2468L134.868 12.2979H136.846L136.306 11.7584C135.47 10.8023 134.741 9.75709 134.132 8.64172Z" fill="black"/>
<path d="M146.017 0.429688H144.578L144.628 0.462593C144.952 0.678843 145.237 0.948676 145.471 1.26056C145.595 1.42559 145.704 1.60143 145.796 1.78595L146.017 2.2279V0.429688Z" fill="black"/>
<path d="M136.666 0.429688H134.508V1.39972C134.508 2.17075 134.758 2.92097 135.221 3.53779C135.463 3.86098 135.759 4.1406 136.095 4.36469L137.206 5.10503L139.004 6.00414L140.982 6.90324L141.975 7.34454C142.389 7.52881 142.774 7.77447 143.115 8.07325L143.235 8.17817C143.761 8.63857 144.155 9.23093 144.376 9.89422C144.51 10.2952 144.578 10.7152 144.578 11.1379V12.2979H146.916V11.085C146.916 10.6954 146.884 10.3065 146.82 9.92229L146.748 9.49379C146.622 8.73541 146.327 8.01491 145.886 7.38505C145.498 6.82954 145.003 6.35621 144.431 5.99216L143.319 5.28485L140.622 4.02611L137.526 2.39669C137.315 2.28555 137.131 2.12886 136.988 1.93796C136.779 1.65927 136.666 1.3203 136.666 0.971929V0.429688Z" fill="black"/>
</g>
<defs>
<clipPath id="clip0_314_943">
<rect width="221" height="11.934" fill="white" transform="translate(0 0.429688)"/>
</clipPath>
</defs>
</svg>
